<svg xmlns="http://www.w3.org/2000/svg" version="1.1" xmlns:xlink="http://www.w3.org/1999/xlink" xmlns:svgjs="http://svgjs.dev/svgjs" width="860" height="560" preserveAspectRatio="none" viewBox="0 0 860 560">
    <g mask="url(&quot;#SvgjsMask1184&quot;)" fill="none">
        <rect width="860" height="560" x="0" y="0" fill="rgba(21, 67, 96, 1)"></rect>
        <path d="M0,371.157C76.333,374.864,162.218,393.411,223.387,347.598C284.27,301.999,285.517,213.304,307.848,140.59C327.217,77.522,358.544,14.99,345.39,-49.66C332.517,-112.928,285.512,-162.655,237.389,-205.698C193.579,-244.884,139.661,-267.016,83.391,-284.003C26.735,-301.107,-31.474,-316.641,-89.362,-304.34C-149.792,-291.499,-201.058,-255.382,-246.786,-213.841C-297.326,-167.928,-360.055,-120.666,-366.389,-52.679C-372.707,15.136,-304.543,64.256,-278.558,127.213C-251.19,193.522,-263.83,279.295,-209.864,326.555C-154.95,374.645,-72.909,367.616,0,371.157" fill="#0e2c3e"></path>
        <path d="M860 956.4590000000001C933.011 953.971 980.128 879.8140000000001 1033.419 829.846 1077.748 788.282 1124.789 747.389 1144.339 689.8530000000001 1162.949 635.083 1145.1970000000001 577.407 1138.7269999999999 519.925 1132.03 460.425 1138.7939999999999 396.98699999999997 1105.756 347.051 1070.915 294.389 1012.3720000000001 264.109 953.827 240.45299999999997 890.46 214.849 823.472 195.002 755.973 205.71800000000002 683.386 217.24200000000002 610.856 246.86599999999999 562.858 302.525 514.905 358.132 494.026 434.202 495.633 507.612 497.116 575.356 538.818 632.385 571.3779999999999 691.809 601.558 746.89 632.523 799.482 678.815 841.929 732.565 891.2149999999999 787.116 958.943 860 956.4590000000001" fill="#1c5a82"></path>
    </g>
    <defs>
        <mask id="SvgjsMask1184">
            <rect width="860" height="560" fill="#ffffff"></rect>
        </mask>
    </defs>
</svg>